<?xml version="1.0" encoding="utf-8"?>
<!-- Generator: Adobe Illustrator 23.0.1, SVG Export Plug-In . SVG Version: 6.00 Build 0)  -->
<svg version="1.1" id="Layer_1" xmlns="http://www.w3.org/2000/svg" xmlns:xlink="http://www.w3.org/1999/xlink" x="0px" y="0px"
	 viewBox="0 0 945.08 568.02" style="enable-background:new 0 0 945.08 568.02;" xml:space="preserve">
<style type="text/css">
	.st0{fill:#FF2400;}
	.st1{fill:#E65100;}
	.st2{fill:#FF5910;}
</style>
<g>
	<g>
		<g>
			<path class="st0" d="M393.55,393.24c-28.2,0-56.41,0.67-84.59-0.19c-27.06-0.82-41.73-19.16-43.93-53.83
				c-3.26-51.42-6.41-102.86-8.97-154.35c-1.84-37.11,11.99-59.17,40.8-60.12c56.37-1.86,112.8-2.1,169.18-0.92
				c28.76,0.6,44.12,22.94,46.08,60.48c2.51,47.98,4.91,95.97,7.45,143.94c2.47,46.6-9.91,63.93-46.87,64.46
				c-26.38,0.38-52.76,0.07-79.14,0.07C393.55,392.93,393.55,393.09,393.55,393.24z"/>
		</g>
		<g>
			<path class="st1" d="M38.45,549.19c0,0,0.75-174.03,0.93-253.54c0.1-42.83,11.58-55.83,53.69-58.38
				c31.68-1.92,63.43-2.87,95.17-3.46c26.7-0.5,42.3,14.13,46.59,42.36c5.39,35.46,11.01,70.88,15.79,106.42
				c2.77,20.56,11.36,31.29,34.22,29.77c24.11-1.6,48.48-0.74,72.66,0.42c24.69,1.18,39.95,14.74,39.76,33.17
				c-0.19,18.88-14.82,30.13-40.83,31.27c-38.39,1.69-76.78,3.31-115.16,5.08c-1.47,0.07-2.88,1.34-8.26,4.01
				c2.73,13.91,8.91,62.89,8.91,62.89H38.45z"/>
			<path class="st1" d="M212.56,105.03c-5.6,19.05-8.16,36.84-15.82,52.07c-22.82,45.38-78.49,63.51-124.55,42.39
				c-44.81-20.55-66.22-73.47-48.67-120.3C41.28,31.82,92.9,7.98,142.2,20.9c22.5,5.9,46.83,4.94,70.36,6.69
				c4.91,0.36,9.99-1.83,14.91-1.52c17.59,1.11,41.31-10.72,47.12,18.03c4.58,22.66-18.94,52.9-42.23,57.49
				C225.84,102.88,219.25,103.88,212.56,105.03z"/>
		</g>
		<g>
			<g>
				<path class="st2" d="M855.38,285.66c-14.3-18.5-28.68-27.23-53.75-28.62c-35.75-1.99-64.29-3.65-104.95-4.97
					c-69.82-2.25-97.5,28.14-129.67,96.38c-7.71,16.36-26.96,35.5-39.15,45.38c-20.31,16.45-34.47,12.59-56.62,22.1
					c-30.25,12.99-54.07,25.34-26.95,50.69c11.72,10.95,45.8,5.66,59.37,2.89c22.88-4.68,37.99-5.7,59.87-14.67
					s46.14-24.4,55.62-49.59c7.06-18.78,7.6-37.39,22.23-51.01c3.36,28.29-1.75,63.46-2.95,90.84
					c-0.78,17.83-2.03,104.13-2.03,104.13l195.34,1.41c0,0,2.57-7.6,20.39-14.91c6.95-2.85,15.39-10.75,20.03-18.78
					c18.75-32.45,37.31-65.83,55.54-98.77c0.03-8.41-0.29-16.76-0.06-25.17C902.24,357.47,882.39,320.61,855.38,285.66z
					 M832.85,455.38c-0.27-27.44-0.53-54.88-0.83-82.31C859.88,412.61,860.62,415.35,832.85,455.38z"/>
				<path class="st2" d="M731.22,233.27c56.15-0.11,90.07-37.51,90.86-97.93c0.81-61.51-32.58-96.38-89.35-97.03
					c-57.88-0.66-89.74,32.95-90.85,95.02C640.76,196.4,673.24,233.39,731.22,233.27z"/>
			</g>
		</g>
	</g>
</g>
</svg>
